<svg xmlns="http://www.w3.org/2000/svg" xmlns:xlink="http://www.w3.org/1999/xlink" id="svg" width="400" height="400" version="1.1" viewBox="0 0 400 400"><g id="svgg"><path id="path0" fill="#000" fill-rule="evenodd" stroke="none" d="M99.363 70.064 L 99.363 87.898 140.764 87.898 L 182.166 87.898 182.166 110.249 C 182.166 131.738,182.276 132.709,185.032 135.436 C 188.655 139.022,214.347 155.414,216.344 155.414 C 217.445 155.414,217.834 146.586,217.834 121.656 L 217.834 87.898 259.236 87.898 L 300.637 87.898 300.637 70.064 L 300.637 52.229 200.000 52.229 L 99.363 52.229 99.363 70.064 M49.682 193.120 C 49.682 347.818,49.173 338.517,57.929 343.929 C 65.099 348.360,68.250 347.472,134.765 322.293 C 169.930 308.981,199.286 298.089,200.000 298.089 C 200.714 298.089,230.070 308.981,265.235 322.293 C 331.750 347.472,334.901 348.360,342.071 343.929 C 350.827 338.517,350.318 347.818,350.318 193.120 L 350.318 53.503 333.121 53.503 L 315.924 53.503 315.924 178.981 C 315.924 247.994,315.664 304.459,315.347 304.459 C 315.029 304.459,289.753 295.000,259.178 283.439 C 228.603 271.879,201.973 262.420,200.000 262.420 C 198.027 262.420,171.397 271.879,140.822 283.439 C 110.247 295.000,84.971 304.459,84.653 304.459 C 84.336 304.459,84.076 247.994,84.076 178.981 L 84.076 53.503 66.879 53.503 L 49.682 53.503 49.682 193.120 M109.709 114.280 C 100.375 118.878,100.647 116.659,100.642 188.217 L 100.637 252.229 117.818 252.229 L 135.000 252.229 135.334 206.936 L 135.669 161.643 188.535 195.646 C 283.458 256.701,275.993 252.229,283.007 252.229 C 288.293 252.229,289.913 251.585,293.968 247.869 L 298.726 243.509 299.078 177.806 L 299.430 112.102 282.215 112.102 L 265.000 112.102 264.666 157.819 L 264.331 203.536 196.178 159.595 C 115.486 107.569,119.288 109.561,109.709 114.280 M182.166 231.847 L 182.166 253.503 200.000 253.503 L 217.834 253.503 217.834 243.484 C 217.834 230.913,217.128 229.953,199.645 218.742 C 181.027 206.803,182.166 205.950,182.166 231.847"/></g></svg>